<svg width="133" height="24" viewBox="0 0 133 24" fill="none" xmlns="http://www.w3.org/2000/svg">
<mask id="mask0" mask-type="alpha" maskUnits="userSpaceOnUse" x="1" y="0" width="15" height="14">
<path fill-rule="evenodd" clip-rule="evenodd" d="M1.09375 0.159668H15.7407V13.4152H1.09375V0.159668Z" fill="white"/>
</mask>
<g mask="url(#mask0)">
<path fill-rule="evenodd" clip-rule="evenodd" d="M13.4854 4.24402C13.1426 4.17546 12.7939 4.14387 12.4446 4.14892C12.1308 4.15366 11.8189 4.18778 11.5128 4.25128C11.6433 3.62953 11.6423 2.98883 11.5099 2.36771C11.8534 2.43595 12.2036 2.46628 12.5559 2.46217C12.8691 2.45712 13.1806 2.42236 13.486 2.35886C13.4255 2.64446 13.3927 2.93512 13.3878 3.22672C13.3819 3.56856 13.4148 3.90945 13.4854 4.24402ZM14.6419 0.159668C14.0597 0.660417 13.3101 0.942859 12.5302 0.95518C11.7506 0.979507 10.9948 0.71065 10.3976 0.232332L9.30649 1.29417C10.2903 2.44795 10.3167 4.07973 9.38682 5.24425L5.00108 9.50457L4.00554 8.53782L2.89065 9.62051L3.88618 10.5876L3.20417 11.2501L2.20897 10.283L1.09375 11.366L3.20483 13.4152L10.478 6.34843C11.6878 5.40759 13.3732 5.41422 14.5762 6.36359L15.6674 5.30333C15.185 4.72676 14.9265 3.99822 14.9388 3.25105C14.9515 2.50292 15.2364 1.78102 15.7409 1.21867L14.6419 0.159668Z" fill="#DFAC11"/>
</g>
<path fill-rule="evenodd" clip-rule="evenodd" d="M11.8916 18.8039C12.2592 18.8738 12.6331 18.9065 13.0078 18.9014C13.3444 18.8965 13.6789 18.8612 14.0071 18.7965C13.8672 19.4333 13.8683 20.0903 14.0102 20.7265C13.6422 20.6569 13.2662 20.6258 12.8885 20.63C12.5526 20.6352 12.2184 20.6708 11.8909 20.7359C11.9558 20.4432 11.991 20.145 11.9962 19.8465C12.0025 19.4958 11.9673 19.1468 11.8916 18.8039ZM10.6513 22.9898C11.2756 22.4766 12.0796 22.1871 12.916 22.1745C13.7521 22.1496 14.5627 22.4251 15.2031 22.9153L16.3734 21.8271C15.3182 20.6446 15.29 18.9723 16.2876 17.7788L20.9908 13.4126L22.0585 14.4034L23.2542 13.2938L22.1865 12.3027L22.9179 11.6237L23.9853 12.6148L25.1813 11.5048L22.9172 9.40479L15.117 16.6472C13.8194 17.6114 12.0119 17.6046 10.7217 16.6316L9.55149 17.7179C10.0688 18.3088 10.3464 19.0558 10.3328 19.8212C10.3192 20.5883 10.0136 21.3281 9.47266 21.9045L10.6513 22.9898Z" fill="#DFAC11"/>
<path fill-rule="evenodd" clip-rule="evenodd" d="M119.903 4.04849L118.522 5.42998L117.141 4.04849L118.522 2.66699L119.903 4.04849Z" fill="white"/>
<path fill-rule="evenodd" clip-rule="evenodd" d="M44.846 6.62631C44.846 5.39495 44.384 4.92102 43.1824 4.92102H37.3607V11.7418H43.1824C44.384 11.7418 44.846 11.2682 44.846 10.0366V6.62631ZM43.2748 3.35791C45.47 3.35791 46.5096 4.42391 46.5096 6.67343V9.98928C46.5096 12.2391 45.47 13.3048 43.2748 13.3048H37.3607V18.4675H40.0404V19.9359H33.3867V18.4675H35.6971V4.82655H33.3867V3.35791H43.2748Z" fill="white"/>
<path fill-rule="evenodd" clip-rule="evenodd" d="M52.8708 13.8685C51.6326 14.0134 51.1373 14.3513 51.1373 16.185C51.1373 18.0183 51.6326 18.5976 53.3661 18.5976C55.5704 18.5976 56.6599 18.0422 58.1211 17.0292V13.2896L52.8708 13.8685ZM61.8853 19.9481H58.1211V18.1629C57.0064 19.4418 55.7681 20.0446 53.3412 20.0446C50.543 20.0446 49.4531 18.8867 49.4531 16.1849C49.4531 13.4825 50.543 12.7348 52.8215 12.5176C54.0349 12.3969 55.9417 12.2523 58.1211 12.1558V10.0569C58.1211 8.85057 57.6259 8.36779 56.3876 8.36779H53.3167C52.0784 8.36779 51.5832 8.85057 51.5832 10.0569V10.419H49.899V10.2015C49.899 7.98182 50.9889 6.92041 53.267 6.92041H56.4369C58.7154 6.92041 59.8049 7.98182 59.8049 10.2015V18.5488H61.8853V19.9481Z" fill="white"/>
<path fill-rule="evenodd" clip-rule="evenodd" d="M73.3558 10.2125C71.9286 9.22431 70.8645 8.68301 68.591 8.68301C66.777 8.68301 66.2933 9.15381 66.2933 10.3302V17.0118C66.2933 18.1882 66.777 18.6586 68.591 18.6586C70.8645 18.6586 71.9286 18.1173 73.3558 17.1295V10.2125ZM77.0806 20.0232H73.3558V18.2823C72.0739 19.3409 71.058 20.1173 68.5668 20.1173C65.7125 20.1173 64.6484 19.0822 64.6484 16.9177V10.4243C64.6484 8.25973 65.7125 7.22466 68.5668 7.22466C71.058 7.22466 72.0739 8.00104 73.3558 9.05972V4.21321H70.937V2.84863H75.0006V18.6586H77.0806V20.0232Z" fill="white"/>
<path fill-rule="evenodd" clip-rule="evenodd" d="M89.0224 6.53151C89.0224 5.30015 88.5655 4.82623 87.3783 4.82623H83.1774C81.9899 4.82623 81.5333 5.30015 81.5333 6.53151V8.21304C81.5333 9.46816 82.0583 9.87048 83.1774 10.1312L87.6068 11.1969C89.3877 11.623 90.8946 12.0969 90.8946 14.5834V16.62C90.8946 18.8702 89.8672 19.9359 87.6981 19.9359H83.0402C80.8712 19.9359 79.8438 18.8702 79.8438 16.62V14.9388H81.4878V16.7622C81.4878 17.9939 81.9444 18.4672 83.1315 18.4672H87.6068C88.7939 18.4672 89.2505 17.9939 89.2505 16.7622V14.7728C89.2505 13.5177 88.7255 13.1154 87.6068 12.8546L83.1774 11.789C81.3965 11.3626 79.8896 10.889 79.8896 8.40216V6.67343C79.8896 4.42359 80.917 3.35791 83.086 3.35791H87.4697C89.6387 3.35791 90.6664 4.42359 90.6664 6.67343V8.18928H89.0224V6.53151Z" fill="white"/>
<path fill-rule="evenodd" clip-rule="evenodd" d="M103.075 10.0289C103.075 8.85139 102.595 8.38015 100.795 8.38015C98.5395 8.38015 97.4832 8.92227 96.0675 9.91104V16.8343C97.4832 17.8234 98.5395 18.3649 100.795 18.3649C102.595 18.3649 103.075 17.894 103.075 16.7165V10.0289ZM104.708 10.123V16.6223C104.708 18.7888 103.652 19.8249 100.819 19.8249C98.3475 19.8249 97.3394 19.0478 96.0675 17.9881V22.1328H98.6114V23.4983H92.2754V22.1328H94.4353V8.3801H92.2754V7.01459H96.0675V8.75747C97.3394 7.69751 98.3475 6.92041 100.819 6.92041C103.652 6.92041 104.708 7.95643 104.708 10.123Z" fill="white"/>
<path fill-rule="evenodd" clip-rule="evenodd" d="M114.378 19.9798H108.162V18.6626H110.455V4.719H108.162V3.40183H112.187V18.6626H114.378V19.9798Z" fill="white"/>
<path fill-rule="evenodd" clip-rule="evenodd" d="M122.665 19.9795H116.449V18.635H118.742V8.32974H116.449V6.92041H120.474V18.635H122.665V19.9795Z" fill="white"/>
<path fill-rule="evenodd" clip-rule="evenodd" d="M126.97 17.1332C126.97 18.3188 127.458 18.793 128.678 18.793H130.264V20.2632H128.629C126.384 20.2632 125.31 19.2199 125.31 17.0383V8.88128H123.357V7.45871H125.31V4.37598H126.97V7.45871H130.264V8.88128H126.97V17.1332Z" fill="white"/>
</svg>
